<mxfile host="app.diagrams.net" agent="Mozilla/5.0 (Windows NT 10.0; Win64; x64) AppleWebKit/537.36 (KHTML, like Gecko) Chrome/127.0.0.0 Safari/537.36" version="24.7.7">
  <diagram id="C5RBs43oDa-KdzZeNtuy" name="Page-1">
    <mxGraphModel dx="1804" dy="548" grid="1" gridSize="10" guides="1" tooltips="1" connect="1" arrows="1" fold="1" page="1" pageScale="1" pageWidth="827" pageHeight="1169" math="0" shadow="0">
      <root>
        <mxCell id="WIyWlLk6GJQsqaUBKTNV-0" />
        <mxCell id="WIyWlLk6GJQsqaUBKTNV-1" parent="WIyWlLk6GJQsqaUBKTNV-0" />
        <mxCell id="WIyWlLk6GJQsqaUBKTNV-3" value="Bienvenido" style="rounded=1;whiteSpace=wrap;html=1;fontSize=12;glass=0;strokeWidth=1;shadow=0;" parent="WIyWlLk6GJQsqaUBKTNV-1" vertex="1">
          <mxGeometry x="160" y="80" width="120" height="40" as="geometry" />
        </mxCell>
        <mxCell id="hVqQDCtbfpN11Vdr0_AG-2" value="" style="endArrow=classic;html=1;rounded=0;exitX=0.5;exitY=1;exitDx=0;exitDy=0;entryX=0.5;entryY=0;entryDx=0;entryDy=0;" edge="1" parent="WIyWlLk6GJQsqaUBKTNV-1" source="WIyWlLk6GJQsqaUBKTNV-3">
          <mxGeometry width="50" height="50" relative="1" as="geometry">
            <mxPoint x="230" y="370" as="sourcePoint" />
            <mxPoint x="220" y="170" as="targetPoint" />
          </mxGeometry>
        </mxCell>
        <mxCell id="hVqQDCtbfpN11Vdr0_AG-4" value="" style="endArrow=classic;html=1;rounded=0;exitX=0.5;exitY=1;exitDx=0;exitDy=0;entryX=0.5;entryY=0;entryDx=0;entryDy=0;" edge="1" parent="WIyWlLk6GJQsqaUBKTNV-1">
          <mxGeometry width="50" height="50" relative="1" as="geometry">
            <mxPoint x="220" y="230" as="sourcePoint" />
            <mxPoint x="220" y="290" as="targetPoint" />
          </mxGeometry>
        </mxCell>
        <mxCell id="hVqQDCtbfpN11Vdr0_AG-6" value="" style="endArrow=classic;html=1;rounded=0;exitX=0.5;exitY=1;exitDx=0;exitDy=0;entryX=0.5;entryY=0;entryDx=0;entryDy=0;" edge="1" parent="WIyWlLk6GJQsqaUBKTNV-1">
          <mxGeometry width="50" height="50" relative="1" as="geometry">
            <mxPoint x="220" y="350" as="sourcePoint" />
            <mxPoint x="220" y="400" as="targetPoint" />
          </mxGeometry>
        </mxCell>
        <mxCell id="hVqQDCtbfpN11Vdr0_AG-7" value="" style="endArrow=classic;html=1;rounded=0;exitX=0.5;exitY=1;exitDx=0;exitDy=0;" edge="1" parent="WIyWlLk6GJQsqaUBKTNV-1">
          <mxGeometry width="50" height="50" relative="1" as="geometry">
            <mxPoint x="220" y="460" as="sourcePoint" />
            <mxPoint x="220" y="500" as="targetPoint" />
          </mxGeometry>
        </mxCell>
        <mxCell id="hVqQDCtbfpN11Vdr0_AG-9" value="validacion de asesor" style="rhombus;whiteSpace=wrap;html=1;" vertex="1" parent="WIyWlLk6GJQsqaUBKTNV-1">
          <mxGeometry x="170" y="500" width="100" height="120" as="geometry" />
        </mxCell>
        <mxCell id="hVqQDCtbfpN11Vdr0_AG-10" value="" style="endArrow=none;html=1;rounded=0;exitX=1;exitY=0.5;exitDx=0;exitDy=0;" edge="1" parent="WIyWlLk6GJQsqaUBKTNV-1" source="hVqQDCtbfpN11Vdr0_AG-9">
          <mxGeometry width="50" height="50" relative="1" as="geometry">
            <mxPoint x="230" y="660" as="sourcePoint" />
            <mxPoint x="320" y="560" as="targetPoint" />
          </mxGeometry>
        </mxCell>
        <mxCell id="hVqQDCtbfpN11Vdr0_AG-12" value="" style="endArrow=classic;html=1;rounded=0;" edge="1" parent="WIyWlLk6GJQsqaUBKTNV-1">
          <mxGeometry width="50" height="50" relative="1" as="geometry">
            <mxPoint x="320" y="560" as="sourcePoint" />
            <mxPoint x="320" y="650" as="targetPoint" />
          </mxGeometry>
        </mxCell>
        <mxCell id="hVqQDCtbfpN11Vdr0_AG-20" style="edgeStyle=orthogonalEdgeStyle;rounded=0;orthogonalLoop=1;jettySize=auto;html=1;entryX=0.5;entryY=0;entryDx=0;entryDy=0;" edge="1" parent="WIyWlLk6GJQsqaUBKTNV-1">
          <mxGeometry relative="1" as="geometry">
            <mxPoint x="320" y="710" as="sourcePoint" />
            <mxPoint x="320" y="750" as="targetPoint" />
          </mxGeometry>
        </mxCell>
        <mxCell id="hVqQDCtbfpN11Vdr0_AG-14" value="no" style="text;html=1;align=center;verticalAlign=middle;whiteSpace=wrap;rounded=0;" vertex="1" parent="WIyWlLk6GJQsqaUBKTNV-1">
          <mxGeometry x="270" y="530" width="60" height="30" as="geometry" />
        </mxCell>
        <mxCell id="hVqQDCtbfpN11Vdr0_AG-15" value="" style="endArrow=none;html=1;rounded=0;entryX=0;entryY=0.5;entryDx=0;entryDy=0;" edge="1" parent="WIyWlLk6GJQsqaUBKTNV-1" target="hVqQDCtbfpN11Vdr0_AG-9">
          <mxGeometry width="50" height="50" relative="1" as="geometry">
            <mxPoint x="120" y="560" as="sourcePoint" />
            <mxPoint x="130" y="610" as="targetPoint" />
          </mxGeometry>
        </mxCell>
        <mxCell id="hVqQDCtbfpN11Vdr0_AG-16" value="" style="endArrow=classic;html=1;rounded=0;" edge="1" parent="WIyWlLk6GJQsqaUBKTNV-1">
          <mxGeometry width="50" height="50" relative="1" as="geometry">
            <mxPoint x="120" y="560" as="sourcePoint" />
            <mxPoint x="120" y="650" as="targetPoint" />
          </mxGeometry>
        </mxCell>
        <mxCell id="hVqQDCtbfpN11Vdr0_AG-18" value="si" style="text;html=1;align=center;verticalAlign=middle;whiteSpace=wrap;rounded=0;" vertex="1" parent="WIyWlLk6GJQsqaUBKTNV-1">
          <mxGeometry x="110" y="530" width="60" height="30" as="geometry" />
        </mxCell>
        <mxCell id="hVqQDCtbfpN11Vdr0_AG-23" value="" style="edgeStyle=orthogonalEdgeStyle;rounded=0;orthogonalLoop=1;jettySize=auto;html=1;" edge="1" parent="WIyWlLk6GJQsqaUBKTNV-1" target="hVqQDCtbfpN11Vdr0_AG-22">
          <mxGeometry relative="1" as="geometry">
            <mxPoint x="320" y="810" as="sourcePoint" />
          </mxGeometry>
        </mxCell>
        <mxCell id="hVqQDCtbfpN11Vdr0_AG-25" value="" style="edgeStyle=orthogonalEdgeStyle;rounded=0;orthogonalLoop=1;jettySize=auto;html=1;" edge="1" parent="WIyWlLk6GJQsqaUBKTNV-1" source="hVqQDCtbfpN11Vdr0_AG-22" target="hVqQDCtbfpN11Vdr0_AG-24">
          <mxGeometry relative="1" as="geometry" />
        </mxCell>
        <mxCell id="hVqQDCtbfpN11Vdr0_AG-22" value="solicitar acceso a camara" style="rounded=0;whiteSpace=wrap;html=1;" vertex="1" parent="WIyWlLk6GJQsqaUBKTNV-1">
          <mxGeometry x="260" y="890" width="120" height="60" as="geometry" />
        </mxCell>
        <mxCell id="hVqQDCtbfpN11Vdr0_AG-27" value="" style="edgeStyle=orthogonalEdgeStyle;rounded=0;orthogonalLoop=1;jettySize=auto;html=1;" edge="1" parent="WIyWlLk6GJQsqaUBKTNV-1" source="hVqQDCtbfpN11Vdr0_AG-24" target="hVqQDCtbfpN11Vdr0_AG-26">
          <mxGeometry relative="1" as="geometry" />
        </mxCell>
        <mxCell id="hVqQDCtbfpN11Vdr0_AG-24" value="solicitar acceso a ubicacion" style="rounded=0;whiteSpace=wrap;html=1;" vertex="1" parent="WIyWlLk6GJQsqaUBKTNV-1">
          <mxGeometry x="260" y="1030" width="120" height="60" as="geometry" />
        </mxCell>
        <mxCell id="hVqQDCtbfpN11Vdr0_AG-29" value="" style="edgeStyle=orthogonalEdgeStyle;rounded=0;orthogonalLoop=1;jettySize=auto;html=1;" edge="1" parent="WIyWlLk6GJQsqaUBKTNV-1" source="hVqQDCtbfpN11Vdr0_AG-26">
          <mxGeometry relative="1" as="geometry">
            <mxPoint x="320" y="1310" as="targetPoint" />
          </mxGeometry>
        </mxCell>
        <mxCell id="hVqQDCtbfpN11Vdr0_AG-26" value="obtener detalles de ubicacion" style="rounded=0;whiteSpace=wrap;html=1;" vertex="1" parent="WIyWlLk6GJQsqaUBKTNV-1">
          <mxGeometry x="260" y="1170" width="120" height="60" as="geometry" />
        </mxCell>
        <mxCell id="hVqQDCtbfpN11Vdr0_AG-37" value="" style="edgeStyle=orthogonalEdgeStyle;rounded=0;orthogonalLoop=1;jettySize=auto;html=1;" edge="1" parent="WIyWlLk6GJQsqaUBKTNV-1">
          <mxGeometry relative="1" as="geometry">
            <mxPoint x="320" y="1370" as="sourcePoint" />
            <mxPoint x="320" y="1450" as="targetPoint" />
          </mxGeometry>
        </mxCell>
        <mxCell id="hVqQDCtbfpN11Vdr0_AG-39" value="" style="edgeStyle=orthogonalEdgeStyle;rounded=0;orthogonalLoop=1;jettySize=auto;html=1;" edge="1" parent="WIyWlLk6GJQsqaUBKTNV-1" target="hVqQDCtbfpN11Vdr0_AG-38">
          <mxGeometry relative="1" as="geometry">
            <mxPoint x="320" y="1510" as="sourcePoint" />
          </mxGeometry>
        </mxCell>
        <mxCell id="hVqQDCtbfpN11Vdr0_AG-41" value="" style="edgeStyle=orthogonalEdgeStyle;rounded=0;orthogonalLoop=1;jettySize=auto;html=1;" edge="1" parent="WIyWlLk6GJQsqaUBKTNV-1" source="hVqQDCtbfpN11Vdr0_AG-38">
          <mxGeometry relative="1" as="geometry">
            <mxPoint x="420" y="1620" as="targetPoint" />
          </mxGeometry>
        </mxCell>
        <mxCell id="hVqQDCtbfpN11Vdr0_AG-43" value="" style="edgeStyle=orthogonalEdgeStyle;rounded=0;orthogonalLoop=1;jettySize=auto;html=1;" edge="1" parent="WIyWlLk6GJQsqaUBKTNV-1" source="hVqQDCtbfpN11Vdr0_AG-38">
          <mxGeometry relative="1" as="geometry">
            <mxPoint x="220" y="1620" as="targetPoint" />
          </mxGeometry>
        </mxCell>
        <mxCell id="hVqQDCtbfpN11Vdr0_AG-38" value="validar fotografia" style="rhombus;whiteSpace=wrap;html=1;rounded=0;" vertex="1" parent="WIyWlLk6GJQsqaUBKTNV-1">
          <mxGeometry x="280" y="1580" width="80" height="80" as="geometry" />
        </mxCell>
        <mxCell id="hVqQDCtbfpN11Vdr0_AG-51" value="" style="edgeStyle=orthogonalEdgeStyle;rounded=0;orthogonalLoop=1;jettySize=auto;html=1;" edge="1" parent="WIyWlLk6GJQsqaUBKTNV-1">
          <mxGeometry relative="1" as="geometry">
            <mxPoint x="160" y="1650" as="sourcePoint" />
            <mxPoint x="159.99999999999977" y="1730.0000000000005" as="targetPoint" />
          </mxGeometry>
        </mxCell>
        <mxCell id="hVqQDCtbfpN11Vdr0_AG-44" value="si" style="text;html=1;align=center;verticalAlign=middle;whiteSpace=wrap;rounded=0;" vertex="1" parent="WIyWlLk6GJQsqaUBKTNV-1">
          <mxGeometry x="230" y="1580" width="60" height="30" as="geometry" />
        </mxCell>
        <mxCell id="hVqQDCtbfpN11Vdr0_AG-45" value="no" style="text;html=1;align=center;verticalAlign=middle;whiteSpace=wrap;rounded=0;" vertex="1" parent="WIyWlLk6GJQsqaUBKTNV-1">
          <mxGeometry x="340" y="1580" width="60" height="30" as="geometry" />
        </mxCell>
        <mxCell id="hVqQDCtbfpN11Vdr0_AG-47" value="" style="endArrow=none;html=1;rounded=0;exitX=0.5;exitY=0;exitDx=0;exitDy=0;" edge="1" parent="WIyWlLk6GJQsqaUBKTNV-1">
          <mxGeometry width="50" height="50" relative="1" as="geometry">
            <mxPoint x="480.00000000000045" y="1590" as="sourcePoint" />
            <mxPoint x="480" y="1480" as="targetPoint" />
          </mxGeometry>
        </mxCell>
        <mxCell id="hVqQDCtbfpN11Vdr0_AG-49" value="" style="endArrow=classic;html=1;rounded=0;entryX=1;entryY=0.5;entryDx=0;entryDy=0;" edge="1" parent="WIyWlLk6GJQsqaUBKTNV-1">
          <mxGeometry width="50" height="50" relative="1" as="geometry">
            <mxPoint x="480" y="1480" as="sourcePoint" />
            <mxPoint x="380" y="1480" as="targetPoint" />
          </mxGeometry>
        </mxCell>
        <mxCell id="hVqQDCtbfpN11Vdr0_AG-54" value="" style="edgeStyle=orthogonalEdgeStyle;rounded=0;orthogonalLoop=1;jettySize=auto;html=1;" edge="1" parent="WIyWlLk6GJQsqaUBKTNV-1" target="hVqQDCtbfpN11Vdr0_AG-53">
          <mxGeometry relative="1" as="geometry">
            <mxPoint x="160" y="1790.0000000000005" as="sourcePoint" />
          </mxGeometry>
        </mxCell>
        <mxCell id="hVqQDCtbfpN11Vdr0_AG-56" value="" style="edgeStyle=orthogonalEdgeStyle;rounded=0;orthogonalLoop=1;jettySize=auto;html=1;" edge="1" parent="WIyWlLk6GJQsqaUBKTNV-1" source="hVqQDCtbfpN11Vdr0_AG-53">
          <mxGeometry relative="1" as="geometry">
            <mxPoint x="60" y="1900.0000000000005" as="targetPoint" />
          </mxGeometry>
        </mxCell>
        <mxCell id="hVqQDCtbfpN11Vdr0_AG-58" value="" style="edgeStyle=orthogonalEdgeStyle;rounded=0;orthogonalLoop=1;jettySize=auto;html=1;" edge="1" parent="WIyWlLk6GJQsqaUBKTNV-1" source="hVqQDCtbfpN11Vdr0_AG-53">
          <mxGeometry relative="1" as="geometry">
            <mxPoint x="260" y="1900.0000000000005" as="targetPoint" />
          </mxGeometry>
        </mxCell>
        <mxCell id="hVqQDCtbfpN11Vdr0_AG-53" value="validar fotografia" style="rhombus;whiteSpace=wrap;html=1;rounded=0;" vertex="1" parent="WIyWlLk6GJQsqaUBKTNV-1">
          <mxGeometry x="120" y="1860" width="80" height="80" as="geometry" />
        </mxCell>
        <mxCell id="hVqQDCtbfpN11Vdr0_AG-64" value="" style="edgeStyle=orthogonalEdgeStyle;rounded=0;orthogonalLoop=1;jettySize=auto;html=1;" edge="1" parent="WIyWlLk6GJQsqaUBKTNV-1">
          <mxGeometry relative="1" as="geometry">
            <mxPoint y="1930.0000000000005" as="sourcePoint" />
            <mxPoint x="-2.2737367544323206e-13" y="2010.0000000000005" as="targetPoint" />
          </mxGeometry>
        </mxCell>
        <mxCell id="hVqQDCtbfpN11Vdr0_AG-59" value="si" style="text;html=1;align=center;verticalAlign=middle;whiteSpace=wrap;rounded=0;" vertex="1" parent="WIyWlLk6GJQsqaUBKTNV-1">
          <mxGeometry x="60" y="1860" width="60" height="30" as="geometry" />
        </mxCell>
        <mxCell id="hVqQDCtbfpN11Vdr0_AG-60" value="no" style="text;html=1;align=center;verticalAlign=middle;whiteSpace=wrap;rounded=0;" vertex="1" parent="WIyWlLk6GJQsqaUBKTNV-1">
          <mxGeometry x="190" y="1860" width="60" height="30" as="geometry" />
        </mxCell>
        <mxCell id="hVqQDCtbfpN11Vdr0_AG-61" value="" style="endArrow=classic;html=1;rounded=0;entryX=1;entryY=0.5;entryDx=0;entryDy=0;" edge="1" parent="WIyWlLk6GJQsqaUBKTNV-1">
          <mxGeometry width="50" height="50" relative="1" as="geometry">
            <mxPoint x="320" y="1760" as="sourcePoint" />
            <mxPoint x="220" y="1760.0000000000005" as="targetPoint" />
          </mxGeometry>
        </mxCell>
        <mxCell id="hVqQDCtbfpN11Vdr0_AG-62" value="" style="endArrow=none;html=1;rounded=0;exitX=0.5;exitY=0;exitDx=0;exitDy=0;" edge="1" parent="WIyWlLk6GJQsqaUBKTNV-1">
          <mxGeometry width="50" height="50" relative="1" as="geometry">
            <mxPoint x="320" y="1870.0000000000005" as="sourcePoint" />
            <mxPoint x="320" y="1760" as="targetPoint" />
          </mxGeometry>
        </mxCell>
        <mxCell id="hVqQDCtbfpN11Vdr0_AG-66" value="" style="edgeStyle=orthogonalEdgeStyle;rounded=0;orthogonalLoop=1;jettySize=auto;html=1;" edge="1" parent="WIyWlLk6GJQsqaUBKTNV-1" target="hVqQDCtbfpN11Vdr0_AG-65">
          <mxGeometry relative="1" as="geometry">
            <mxPoint y="2070.0000000000005" as="sourcePoint" />
          </mxGeometry>
        </mxCell>
        <mxCell id="hVqQDCtbfpN11Vdr0_AG-68" value="" style="edgeStyle=orthogonalEdgeStyle;rounded=0;orthogonalLoop=1;jettySize=auto;html=1;" edge="1" parent="WIyWlLk6GJQsqaUBKTNV-1" source="hVqQDCtbfpN11Vdr0_AG-65" target="hVqQDCtbfpN11Vdr0_AG-67">
          <mxGeometry relative="1" as="geometry" />
        </mxCell>
        <mxCell id="hVqQDCtbfpN11Vdr0_AG-65" value="mensaje de validacion y continuar" style="whiteSpace=wrap;html=1;rounded=0;" vertex="1" parent="WIyWlLk6GJQsqaUBKTNV-1">
          <mxGeometry x="-60" y="2150" width="120" height="60" as="geometry" />
        </mxCell>
        <mxCell id="hVqQDCtbfpN11Vdr0_AG-70" value="" style="edgeStyle=orthogonalEdgeStyle;rounded=0;orthogonalLoop=1;jettySize=auto;html=1;" edge="1" parent="WIyWlLk6GJQsqaUBKTNV-1" source="hVqQDCtbfpN11Vdr0_AG-67">
          <mxGeometry relative="1" as="geometry">
            <mxPoint y="2430.0000000000005" as="targetPoint" />
          </mxGeometry>
        </mxCell>
        <mxCell id="hVqQDCtbfpN11Vdr0_AG-67" value="confirmacion de datos y continuar" style="whiteSpace=wrap;html=1;rounded=0;" vertex="1" parent="WIyWlLk6GJQsqaUBKTNV-1">
          <mxGeometry x="-60" y="2290" width="120" height="60" as="geometry" />
        </mxCell>
        <mxCell id="hVqQDCtbfpN11Vdr0_AG-72" value="" style="edgeStyle=orthogonalEdgeStyle;rounded=0;orthogonalLoop=1;jettySize=auto;html=1;" edge="1" parent="WIyWlLk6GJQsqaUBKTNV-1">
          <mxGeometry relative="1" as="geometry">
            <mxPoint y="2490.0000000000005" as="sourcePoint" />
            <mxPoint x="-2.2737367544323206e-13" y="2570" as="targetPoint" />
          </mxGeometry>
        </mxCell>
        <mxCell id="hVqQDCtbfpN11Vdr0_AG-76" value="" style="edgeStyle=orthogonalEdgeStyle;rounded=0;orthogonalLoop=1;jettySize=auto;html=1;" edge="1" parent="WIyWlLk6GJQsqaUBKTNV-1" target="hVqQDCtbfpN11Vdr0_AG-75">
          <mxGeometry relative="1" as="geometry">
            <mxPoint y="2630" as="sourcePoint" />
          </mxGeometry>
        </mxCell>
        <mxCell id="hVqQDCtbfpN11Vdr0_AG-78" value="" style="edgeStyle=orthogonalEdgeStyle;rounded=0;orthogonalLoop=1;jettySize=auto;html=1;" edge="1" parent="WIyWlLk6GJQsqaUBKTNV-1" source="hVqQDCtbfpN11Vdr0_AG-75">
          <mxGeometry relative="1" as="geometry">
            <mxPoint x="-130" y="2805" as="targetPoint" />
          </mxGeometry>
        </mxCell>
        <mxCell id="hVqQDCtbfpN11Vdr0_AG-80" value="" style="edgeStyle=orthogonalEdgeStyle;rounded=0;orthogonalLoop=1;jettySize=auto;html=1;" edge="1" parent="WIyWlLk6GJQsqaUBKTNV-1" source="hVqQDCtbfpN11Vdr0_AG-75">
          <mxGeometry relative="1" as="geometry">
            <mxPoint x="130" y="2805" as="targetPoint" />
          </mxGeometry>
        </mxCell>
        <mxCell id="hVqQDCtbfpN11Vdr0_AG-75" value="validar numero" style="rhombus;whiteSpace=wrap;html=1;rounded=0;" vertex="1" parent="WIyWlLk6GJQsqaUBKTNV-1">
          <mxGeometry x="-55" y="2730" width="110" height="150" as="geometry" />
        </mxCell>
        <mxCell id="hVqQDCtbfpN11Vdr0_AG-90" value="" style="edgeStyle=orthogonalEdgeStyle;rounded=0;orthogonalLoop=1;jettySize=auto;html=1;" edge="1" parent="WIyWlLk6GJQsqaUBKTNV-1">
          <mxGeometry relative="1" as="geometry">
            <mxPoint x="-190" y="2835" as="sourcePoint" />
            <mxPoint x="-190" y="2920" as="targetPoint" />
          </mxGeometry>
        </mxCell>
        <mxCell id="hVqQDCtbfpN11Vdr0_AG-81" value="no" style="text;html=1;align=center;verticalAlign=middle;whiteSpace=wrap;rounded=0;" vertex="1" parent="WIyWlLk6GJQsqaUBKTNV-1">
          <mxGeometry x="70" y="2775" width="60" height="30" as="geometry" />
        </mxCell>
        <mxCell id="hVqQDCtbfpN11Vdr0_AG-86" value="si" style="text;html=1;align=center;verticalAlign=middle;whiteSpace=wrap;rounded=0;" vertex="1" parent="WIyWlLk6GJQsqaUBKTNV-1">
          <mxGeometry x="-130" y="2775" width="60" height="30" as="geometry" />
        </mxCell>
        <mxCell id="hVqQDCtbfpN11Vdr0_AG-87" value="" style="endArrow=none;html=1;rounded=0;entryX=0.5;entryY=0;entryDx=0;entryDy=0;" edge="1" parent="WIyWlLk6GJQsqaUBKTNV-1">
          <mxGeometry width="50" height="50" relative="1" as="geometry">
            <mxPoint x="190" y="2600" as="sourcePoint" />
            <mxPoint x="190" y="2775" as="targetPoint" />
          </mxGeometry>
        </mxCell>
        <mxCell id="hVqQDCtbfpN11Vdr0_AG-88" value="" style="endArrow=classic;html=1;rounded=0;entryX=1;entryY=0.5;entryDx=0;entryDy=0;" edge="1" parent="WIyWlLk6GJQsqaUBKTNV-1">
          <mxGeometry width="50" height="50" relative="1" as="geometry">
            <mxPoint x="190" y="2600" as="sourcePoint" />
            <mxPoint x="60" y="2600" as="targetPoint" />
          </mxGeometry>
        </mxCell>
        <mxCell id="hVqQDCtbfpN11Vdr0_AG-92" value="" style="edgeStyle=orthogonalEdgeStyle;rounded=0;orthogonalLoop=1;jettySize=auto;html=1;" edge="1" parent="WIyWlLk6GJQsqaUBKTNV-1" target="hVqQDCtbfpN11Vdr0_AG-91">
          <mxGeometry relative="1" as="geometry">
            <mxPoint x="-190" y="2975" as="sourcePoint" />
          </mxGeometry>
        </mxCell>
        <mxCell id="hVqQDCtbfpN11Vdr0_AG-94" value="" style="edgeStyle=orthogonalEdgeStyle;rounded=0;orthogonalLoop=1;jettySize=auto;html=1;" edge="1" parent="WIyWlLk6GJQsqaUBKTNV-1" source="hVqQDCtbfpN11Vdr0_AG-91">
          <mxGeometry relative="1" as="geometry">
            <mxPoint x="-190" y="3195" as="targetPoint" />
          </mxGeometry>
        </mxCell>
        <mxCell id="hVqQDCtbfpN11Vdr0_AG-91" value="validacion de solicitud fotografia" style="whiteSpace=wrap;html=1;rounded=0;" vertex="1" parent="WIyWlLk6GJQsqaUBKTNV-1">
          <mxGeometry x="-250" y="3055" width="120" height="60" as="geometry" />
        </mxCell>
        <mxCell id="hVqQDCtbfpN11Vdr0_AG-96" value="" style="edgeStyle=orthogonalEdgeStyle;rounded=0;orthogonalLoop=1;jettySize=auto;html=1;" edge="1" parent="WIyWlLk6GJQsqaUBKTNV-1" target="hVqQDCtbfpN11Vdr0_AG-95">
          <mxGeometry relative="1" as="geometry">
            <mxPoint x="-190" y="3255" as="sourcePoint" />
          </mxGeometry>
        </mxCell>
        <mxCell id="hVqQDCtbfpN11Vdr0_AG-98" value="" style="edgeStyle=orthogonalEdgeStyle;rounded=0;orthogonalLoop=1;jettySize=auto;html=1;" edge="1" parent="WIyWlLk6GJQsqaUBKTNV-1" source="hVqQDCtbfpN11Vdr0_AG-95">
          <mxGeometry relative="1" as="geometry">
            <mxPoint x="-190" y="3475" as="targetPoint" />
          </mxGeometry>
        </mxCell>
        <mxCell id="hVqQDCtbfpN11Vdr0_AG-95" value="mensaje de preparacion y continuar" style="whiteSpace=wrap;html=1;rounded=0;" vertex="1" parent="WIyWlLk6GJQsqaUBKTNV-1">
          <mxGeometry x="-250" y="3335" width="120" height="60" as="geometry" />
        </mxCell>
        <mxCell id="hVqQDCtbfpN11Vdr0_AG-100" value="" style="edgeStyle=orthogonalEdgeStyle;rounded=0;orthogonalLoop=1;jettySize=auto;html=1;" edge="1" parent="WIyWlLk6GJQsqaUBKTNV-1">
          <mxGeometry relative="1" as="geometry">
            <mxPoint x="-190" y="3535" as="sourcePoint" />
            <mxPoint x="-190.00000000000023" y="3615" as="targetPoint" />
          </mxGeometry>
        </mxCell>
        <mxCell id="hVqQDCtbfpN11Vdr0_AG-102" value="" style="edgeStyle=orthogonalEdgeStyle;rounded=0;orthogonalLoop=1;jettySize=auto;html=1;" edge="1" parent="WIyWlLk6GJQsqaUBKTNV-1">
          <mxGeometry relative="1" as="geometry">
            <mxPoint x="-190" y="3675" as="sourcePoint" />
            <mxPoint x="-190.00000000000023" y="3755" as="targetPoint" />
          </mxGeometry>
        </mxCell>
        <mxCell id="hVqQDCtbfpN11Vdr0_AG-104" value="" style="edgeStyle=orthogonalEdgeStyle;rounded=0;orthogonalLoop=1;jettySize=auto;html=1;" edge="1" parent="WIyWlLk6GJQsqaUBKTNV-1">
          <mxGeometry relative="1" as="geometry">
            <mxPoint x="-190" y="3815" as="sourcePoint" />
            <mxPoint x="-190.00000000000023" y="3895" as="targetPoint" />
          </mxGeometry>
        </mxCell>
        <mxCell id="hVqQDCtbfpN11Vdr0_AG-106" value="" style="edgeStyle=orthogonalEdgeStyle;rounded=0;orthogonalLoop=1;jettySize=auto;html=1;" edge="1" parent="WIyWlLk6GJQsqaUBKTNV-1" target="hVqQDCtbfpN11Vdr0_AG-105">
          <mxGeometry relative="1" as="geometry">
            <mxPoint x="-190" y="3955" as="sourcePoint" />
          </mxGeometry>
        </mxCell>
        <mxCell id="hVqQDCtbfpN11Vdr0_AG-108" value="" style="edgeStyle=orthogonalEdgeStyle;rounded=0;orthogonalLoop=1;jettySize=auto;html=1;" edge="1" parent="WIyWlLk6GJQsqaUBKTNV-1" source="hVqQDCtbfpN11Vdr0_AG-105" target="hVqQDCtbfpN11Vdr0_AG-107">
          <mxGeometry relative="1" as="geometry" />
        </mxCell>
        <mxCell id="hVqQDCtbfpN11Vdr0_AG-105" value="mensaje de validacion y continuar" style="whiteSpace=wrap;html=1;rounded=0;" vertex="1" parent="WIyWlLk6GJQsqaUBKTNV-1">
          <mxGeometry x="-250" y="4035" width="120" height="60" as="geometry" />
        </mxCell>
        <mxCell id="hVqQDCtbfpN11Vdr0_AG-110" value="" style="edgeStyle=orthogonalEdgeStyle;rounded=0;orthogonalLoop=1;jettySize=auto;html=1;" edge="1" parent="WIyWlLk6GJQsqaUBKTNV-1" source="hVqQDCtbfpN11Vdr0_AG-107">
          <mxGeometry relative="1" as="geometry">
            <mxPoint x="-190" y="4315" as="targetPoint" />
          </mxGeometry>
        </mxCell>
        <mxCell id="hVqQDCtbfpN11Vdr0_AG-107" value="validacion de domicilio y continuar" style="whiteSpace=wrap;html=1;rounded=0;" vertex="1" parent="WIyWlLk6GJQsqaUBKTNV-1">
          <mxGeometry x="-250" y="4175" width="120" height="60" as="geometry" />
        </mxCell>
        <mxCell id="hVqQDCtbfpN11Vdr0_AG-112" value="" style="edgeStyle=orthogonalEdgeStyle;rounded=0;orthogonalLoop=1;jettySize=auto;html=1;" edge="1" parent="WIyWlLk6GJQsqaUBKTNV-1" target="hVqQDCtbfpN11Vdr0_AG-111">
          <mxGeometry relative="1" as="geometry">
            <mxPoint x="-190" y="4375" as="sourcePoint" />
          </mxGeometry>
        </mxCell>
        <mxCell id="hVqQDCtbfpN11Vdr0_AG-114" value="" style="edgeStyle=orthogonalEdgeStyle;rounded=0;orthogonalLoop=1;jettySize=auto;html=1;" edge="1" parent="WIyWlLk6GJQsqaUBKTNV-1" source="hVqQDCtbfpN11Vdr0_AG-111" target="hVqQDCtbfpN11Vdr0_AG-113">
          <mxGeometry relative="1" as="geometry" />
        </mxCell>
        <mxCell id="hVqQDCtbfpN11Vdr0_AG-111" value="validacion de prestamo/ oferta y continuar" style="whiteSpace=wrap;html=1;rounded=0;" vertex="1" parent="WIyWlLk6GJQsqaUBKTNV-1">
          <mxGeometry x="-250" y="4455" width="120" height="60" as="geometry" />
        </mxCell>
        <mxCell id="hVqQDCtbfpN11Vdr0_AG-113" value="mensaje de cita y continuar" style="whiteSpace=wrap;html=1;rounded=0;" vertex="1" parent="WIyWlLk6GJQsqaUBKTNV-1">
          <mxGeometry x="-250" y="4595" width="120" height="60" as="geometry" />
        </mxCell>
        <mxCell id="hVqQDCtbfpN11Vdr0_AG-116" value="fin" style="rounded=1;whiteSpace=wrap;html=1;" vertex="1" parent="WIyWlLk6GJQsqaUBKTNV-1">
          <mxGeometry x="-250" y="4720" width="120" height="60" as="geometry" />
        </mxCell>
        <mxCell id="hVqQDCtbfpN11Vdr0_AG-117" value="" style="endArrow=classic;html=1;rounded=0;entryX=0.5;entryY=0;entryDx=0;entryDy=0;exitX=0.5;exitY=1;exitDx=0;exitDy=0;" edge="1" parent="WIyWlLk6GJQsqaUBKTNV-1" source="hVqQDCtbfpN11Vdr0_AG-113" target="hVqQDCtbfpN11Vdr0_AG-116">
          <mxGeometry width="50" height="50" relative="1" as="geometry">
            <mxPoint x="-290" y="4650" as="sourcePoint" />
            <mxPoint x="-240" y="4600" as="targetPoint" />
          </mxGeometry>
        </mxCell>
        <mxCell id="hVqQDCtbfpN11Vdr0_AG-118" value="registro de nickname" style="shape=parallelogram;perimeter=parallelogramPerimeter;whiteSpace=wrap;html=1;fixedSize=1;" vertex="1" parent="WIyWlLk6GJQsqaUBKTNV-1">
          <mxGeometry x="145" y="170" width="150" height="60" as="geometry" />
        </mxCell>
        <mxCell id="hVqQDCtbfpN11Vdr0_AG-119" value="Registro de producto y monto deseadio" style="shape=parallelogram;perimeter=parallelogramPerimeter;whiteSpace=wrap;html=1;fixedSize=1;" vertex="1" parent="WIyWlLk6GJQsqaUBKTNV-1">
          <mxGeometry x="120" y="290" width="200" height="60" as="geometry" />
        </mxCell>
        <mxCell id="hVqQDCtbfpN11Vdr0_AG-120" value="notificar datos solicitados" style="shape=document;whiteSpace=wrap;html=1;boundedLbl=1;" vertex="1" parent="WIyWlLk6GJQsqaUBKTNV-1">
          <mxGeometry x="170" y="400" width="120" height="80" as="geometry" />
        </mxCell>
        <mxCell id="hVqQDCtbfpN11Vdr0_AG-121" value="registro de numero de empleado" style="shape=parallelogram;perimeter=parallelogramPerimeter;whiteSpace=wrap;html=1;fixedSize=1;" vertex="1" parent="WIyWlLk6GJQsqaUBKTNV-1">
          <mxGeometry x="30" y="650" width="170" height="60" as="geometry" />
        </mxCell>
        <mxCell id="hVqQDCtbfpN11Vdr0_AG-122" value="tomar foto" style="shape=parallelogram;perimeter=parallelogramPerimeter;whiteSpace=wrap;html=1;fixedSize=1;" vertex="1" parent="WIyWlLk6GJQsqaUBKTNV-1">
          <mxGeometry x="260" y="650" width="120" height="60" as="geometry" />
        </mxCell>
        <mxCell id="hVqQDCtbfpN11Vdr0_AG-123" value="notificar datos de identidad requeridos" style="shape=document;whiteSpace=wrap;html=1;boundedLbl=1;" vertex="1" parent="WIyWlLk6GJQsqaUBKTNV-1">
          <mxGeometry x="260" y="750" width="120" height="80" as="geometry" />
        </mxCell>
        <mxCell id="hVqQDCtbfpN11Vdr0_AG-124" value="notificar solicitud de foto, INE y acceso a camara" style="shape=document;whiteSpace=wrap;html=1;boundedLbl=1;" vertex="1" parent="WIyWlLk6GJQsqaUBKTNV-1">
          <mxGeometry x="260" y="1310" width="120" height="80" as="geometry" />
        </mxCell>
        <mxCell id="hVqQDCtbfpN11Vdr0_AG-125" value="toma de fotografia" style="shape=parallelogram;perimeter=parallelogramPerimeter;whiteSpace=wrap;html=1;fixedSize=1;" vertex="1" parent="WIyWlLk6GJQsqaUBKTNV-1">
          <mxGeometry x="260" y="1450" width="130" height="60" as="geometry" />
        </mxCell>
        <mxCell id="hVqQDCtbfpN11Vdr0_AG-126" value="envio exitoso" style="shape=document;whiteSpace=wrap;html=1;boundedLbl=1;" vertex="1" parent="WIyWlLk6GJQsqaUBKTNV-1">
          <mxGeometry x="100" y="1580" width="120" height="80" as="geometry" />
        </mxCell>
        <mxCell id="hVqQDCtbfpN11Vdr0_AG-127" value="intente nuevamente" style="shape=document;whiteSpace=wrap;html=1;boundedLbl=1;" vertex="1" parent="WIyWlLk6GJQsqaUBKTNV-1">
          <mxGeometry x="420" y="1590" width="120" height="80" as="geometry" />
        </mxCell>
        <mxCell id="hVqQDCtbfpN11Vdr0_AG-128" value="tomar reveerso de fotografia" style="shape=parallelogram;perimeter=parallelogramPerimeter;whiteSpace=wrap;html=1;fixedSize=1;" vertex="1" parent="WIyWlLk6GJQsqaUBKTNV-1">
          <mxGeometry x="100" y="1730" width="130" height="60" as="geometry" />
        </mxCell>
        <mxCell id="hVqQDCtbfpN11Vdr0_AG-129" value="intente nuevamente" style="shape=document;whiteSpace=wrap;html=1;boundedLbl=1;" vertex="1" parent="WIyWlLk6GJQsqaUBKTNV-1">
          <mxGeometry x="260" y="1870" width="120" height="80" as="geometry" />
        </mxCell>
        <mxCell id="hVqQDCtbfpN11Vdr0_AG-130" value="mensaje de confirmacion y continuar" style="shape=document;whiteSpace=wrap;html=1;boundedLbl=1;" vertex="1" parent="WIyWlLk6GJQsqaUBKTNV-1">
          <mxGeometry x="-60" y="1860" width="120" height="80" as="geometry" />
        </mxCell>
        <mxCell id="hVqQDCtbfpN11Vdr0_AG-131" value="mensaje de fidelidad" style="shape=document;whiteSpace=wrap;html=1;boundedLbl=1;" vertex="1" parent="WIyWlLk6GJQsqaUBKTNV-1">
          <mxGeometry x="-60" y="2010" width="120" height="80" as="geometry" />
        </mxCell>
        <mxCell id="hVqQDCtbfpN11Vdr0_AG-133" value="mensaje de fidelidad" style="shape=document;whiteSpace=wrap;html=1;boundedLbl=1;" vertex="1" parent="WIyWlLk6GJQsqaUBKTNV-1">
          <mxGeometry x="-55" y="2430" width="120" height="80" as="geometry" />
        </mxCell>
        <mxCell id="hVqQDCtbfpN11Vdr0_AG-134" value="registro de numero" style="shape=parallelogram;perimeter=parallelogramPerimeter;whiteSpace=wrap;html=1;fixedSize=1;" vertex="1" parent="WIyWlLk6GJQsqaUBKTNV-1">
          <mxGeometry x="-70" y="2570" width="140" height="60" as="geometry" />
        </mxCell>
        <mxCell id="hVqQDCtbfpN11Vdr0_AG-135" value="numero ya registrado intente con otro" style="shape=document;whiteSpace=wrap;html=1;boundedLbl=1;" vertex="1" parent="WIyWlLk6GJQsqaUBKTNV-1">
          <mxGeometry x="130" y="2775" width="120" height="80" as="geometry" />
        </mxCell>
        <mxCell id="hVqQDCtbfpN11Vdr0_AG-136" value="ingreso de codigo de seguridad y continuar" style="shape=parallelogram;perimeter=parallelogramPerimeter;whiteSpace=wrap;html=1;fixedSize=1;" vertex="1" parent="WIyWlLk6GJQsqaUBKTNV-1">
          <mxGeometry x="-280" y="2775" width="160" height="60" as="geometry" />
        </mxCell>
        <mxCell id="hVqQDCtbfpN11Vdr0_AG-137" value="mensaje de validacion" style="shape=document;whiteSpace=wrap;html=1;boundedLbl=1;" vertex="1" parent="WIyWlLk6GJQsqaUBKTNV-1">
          <mxGeometry x="-250" y="2923" width="120" height="80" as="geometry" />
        </mxCell>
        <mxCell id="hVqQDCtbfpN11Vdr0_AG-139" value="instrucciones de captura" style="shape=document;whiteSpace=wrap;html=1;boundedLbl=1;" vertex="1" parent="WIyWlLk6GJQsqaUBKTNV-1">
          <mxGeometry x="-240" y="3195" width="120" height="80" as="geometry" />
        </mxCell>
        <mxCell id="hVqQDCtbfpN11Vdr0_AG-142" value="" style="edgeStyle=orthogonalEdgeStyle;rounded=0;orthogonalLoop=1;jettySize=auto;html=1;" edge="1" parent="WIyWlLk6GJQsqaUBKTNV-1" source="hVqQDCtbfpN11Vdr0_AG-140" target="hVqQDCtbfpN11Vdr0_AG-141">
          <mxGeometry relative="1" as="geometry" />
        </mxCell>
        <mxCell id="hVqQDCtbfpN11Vdr0_AG-140" value="captura de fotografia 1" style="shape=parallelogram;perimeter=parallelogramPerimeter;whiteSpace=wrap;html=1;fixedSize=1;" vertex="1" parent="WIyWlLk6GJQsqaUBKTNV-1">
          <mxGeometry x="-270" y="3475" width="160" height="60" as="geometry" />
        </mxCell>
        <mxCell id="hVqQDCtbfpN11Vdr0_AG-141" value="captura de fotografia 2" style="shape=parallelogram;perimeter=parallelogramPerimeter;whiteSpace=wrap;html=1;fixedSize=1;" vertex="1" parent="WIyWlLk6GJQsqaUBKTNV-1">
          <mxGeometry x="-270" y="3615" width="160" height="60" as="geometry" />
        </mxCell>
        <mxCell id="hVqQDCtbfpN11Vdr0_AG-143" value="mensaje de confirmacion" style="shape=document;whiteSpace=wrap;html=1;boundedLbl=1;" vertex="1" parent="WIyWlLk6GJQsqaUBKTNV-1">
          <mxGeometry x="-250" y="3755" width="120" height="80" as="geometry" />
        </mxCell>
        <mxCell id="hVqQDCtbfpN11Vdr0_AG-144" value="mensaje de fidelidad" style="shape=document;whiteSpace=wrap;html=1;boundedLbl=1;" vertex="1" parent="WIyWlLk6GJQsqaUBKTNV-1">
          <mxGeometry x="-250" y="3895" width="120" height="80" as="geometry" />
        </mxCell>
        <mxCell id="hVqQDCtbfpN11Vdr0_AG-145" value="mensajes de espera" style="shape=document;whiteSpace=wrap;html=1;boundedLbl=1;" vertex="1" parent="WIyWlLk6GJQsqaUBKTNV-1">
          <mxGeometry x="-250" y="4315" width="120" height="80" as="geometry" />
        </mxCell>
      </root>
    </mxGraphModel>
  </diagram>
</mxfile>
